if (_typeface_js && _typeface_js.loadFace) _typeface_js.loadFace({"glyphs":{"ο":{"x_min":68.0625,"x_max":854.171875,"ha":863,"o":"m 375 -25 q 149 57 230 -25 q 68 275 68 140 q 79 372 68 319 q 245 660 116 545 q 545 775 373 775 q 772 691 690 775 q 854 472 854 608 q 843 372 854 427 q 675 87 805 200 q 375 -25 545 -25 m 409 142 q 561 216 497 142 q 636 373 616 282 q 644 444 644 409 q 613 557 644 514 q 508 607 577 607 q 358 530 423 607 q 283 373 304 466 q 276 305 276 336 q 305 191 276 233 q 409 142 340 142 "},"S":{"x_min":65,"x_max":948,"ha":915,"o":"m 891 306 q 713 55 857 148 q 417 -29 582 -29 q 167 47 264 -29 q 65 268 65 128 q 65 290 65 279 q 65 318 65 302 l 276 318 q 275 297 275 311 q 335 188 275 228 q 468 152 391 152 q 597 181 539 152 q 682 282 668 217 q 685 308 685 301 q 550 412 685 378 q 300 478 309 475 q 165 652 165 533 q 171 719 165 687 q 341 958 203 867 q 621 1040 466 1040 q 856 966 764 1040 q 948 764 948 893 q 943 713 948 741 l 744 713 q 745 731 745 720 q 697 831 745 796 q 577 866 649 866 q 456 838 510 866 q 375 742 389 803 q 373 718 373 725 q 509 616 373 650 q 761 552 757 553 q 898 374 898 496 q 896 342 898 359 q 891 306 895 324 "},"¦":{"x_min":-51.375,"x_max":354.28125,"ha":240,"o":"m 242 462 l 99 462 l 211 984 l 354 983 l 242 462 m 91 -242 l -51 -242 l 60 280 l 203 280 l 91 -242 "},"/":{"x_min":167.953125,"x_max":854.375,"ha":828,"o":"m 854 1040 l 261 -128 l 167 -128 l 759 1039 l 854 1040 "},"Τ":{"x_min":177.78125,"x_max":1025,"ha":878,"o":"m 986 831 l 686 831 l 508 0 l 298 0 l 476 831 l 177 831 l 216 1013 l 1025 1013 l 986 831 "},"y":{"x_min":61.5,"x_max":897.609375,"ha":828,"o":"m 897 749 l 421 -107 q 308 -237 369 -197 q 153 -277 247 -277 q 103 -274 130 -277 q 61 -271 76 -272 l 96 -110 q 122 -113 110 -111 q 153 -116 135 -116 q 264 -17 244 -116 q 242 173 267 -3 q 194 515 218 351 q 158 749 176 632 l 376 749 l 419 207 l 687 749 l 897 749 "},"Π":{"x_min":0,"x_max":1026.390625,"ha":922,"o":"m 809 0 l 598 0 l 777 836 l 387 836 l 208 0 l 0 0 l 216 1012 l 1026 1012 l 809 0 "},"ΐ":{"x_min":0,"x_max":566.671875,"ha":364,"o":"m 537 810 l 408 810 l 437 952 l 566 952 l 537 810 m 529 1064 l 259 810 l 161 810 l 351 1064 l 529 1064 m 140 810 l 11 810 l 40 952 l 169 952 l 140 810 m 200 0 l 0 0 l 159 748 l 359 748 l 200 0 "},"g":{"x_min":6.9375,"x_max":883.328125,"ha":839,"o":"m 733 48 q 589 -223 693 -142 q 291 -304 486 -304 q 95 -259 170 -304 q 6 -102 6 -206 q 8 -72 6 -83 l 227 -72 q 261 -127 231 -110 q 337 -144 291 -144 q 486 -83 438 -144 q 544 70 520 -38 l 551 104 q 446 25 506 51 q 319 0 385 0 q 128 79 194 0 q 69 272 69 151 q 71 329 69 312 q 80 377 73 347 q 216 647 113 533 q 481 775 331 775 q 673 656 622 775 l 692 748 l 883 748 l 733 48 m 403 167 q 542 237 483 167 q 611 382 593 297 q 617 425 616 412 q 618 447 618 439 q 590 555 618 515 q 492 603 558 603 q 352 532 412 603 q 282 386 301 472 q 277 354 278 364 q 276 322 276 344 q 303 214 276 254 q 403 167 337 167 "},"²":{"x_min":82,"x_max":636,"ha":560,"o":"m 631 791 q 499 627 613 706 q 254 483 376 555 l 558 483 l 537 382 l 82 382 q 208 565 105 488 q 388 672 227 579 q 498 784 486 727 q 500 804 500 791 q 476 855 500 836 q 418 875 452 875 q 347 850 377 875 q 294 762 309 819 l 172 762 q 283 924 202 867 q 444 976 356 976 q 580 935 524 976 q 636 824 636 894 q 631 791 636 807 "},"–":{"x_min":63.890625,"x_max":800,"ha":801,"o":"m 768 297 l 63 297 l 95 450 l 800 450 l 768 297 "},"Κ":{"x_min":0,"x_max":1080.5625,"ha":969,"o":"m 900 0 l 647 0 l 415 462 l 284 355 l 208 0 l 0 0 l 216 1013 l 425 1013 l 336 596 l 820 1013 l 1080 1013 l 590 603 l 900 0 "},"ƒ":{"x_min":-104.5625,"x_max":657.953125,"ha":525,"o":"m 571 609 l 448 609 l 91 -277 l -104 -277 l 252 609 l 145 609 l 174 749 l 281 749 q 363 949 312 894 q 563 1019 426 1019 l 657 1015 l 624 855 l 562 855 q 495 826 512 855 q 476 749 491 817 l 601 749 l 571 609 "},"e":{"x_min":66,"x_max":804,"ha":808,"o":"m 776 321 l 274 321 q 270 295 271 309 q 269 269 269 280 q 303 174 269 207 q 389 141 337 141 q 546 227 481 141 l 747 227 q 572 36 685 104 q 354 -26 470 -26 q 152 46 231 -26 q 66 264 66 125 q 78 369 66 312 q 241 683 121 573 q 527 793 360 793 q 733 724 662 793 q 804 516 804 656 q 776 321 804 434 m 598 453 q 602 476 601 462 q 604 500 604 490 q 571 583 604 555 q 484 612 538 612 q 369 570 418 612 q 304 453 320 529 l 598 453 "},"ό":{"x_min":68.0625,"x_max":854.171875,"ha":863,"o":"m 375 -25 q 149 57 230 -25 q 68 275 68 140 q 79 372 68 319 q 245 660 116 545 q 545 775 373 775 q 772 691 690 775 q 854 472 854 608 q 843 372 854 427 q 675 87 805 200 q 375 -25 545 -25 m 409 142 q 561 216 497 142 q 636 373 616 282 q 644 444 644 409 q 613 557 644 514 q 508 607 577 607 q 358 530 423 607 q 283 373 304 466 q 276 305 276 336 q 305 191 276 233 q 409 142 340 142 m 815 1039 l 568 823 l 469 823 l 637 1039 l 815 1039 "},"J":{"x_min":58,"x_max":865.28125,"ha":760,"o":"m 711 294 q 583 48 674 125 q 322 -29 491 -29 q 114 32 178 -29 q 58 198 58 87 q 80 375 58 270 l 280 375 l 264 309 q 255 235 255 264 q 275 167 255 190 q 350 145 296 145 q 459 193 421 145 q 505 307 488 231 l 656 1013 l 865 1013 l 711 294 "},"»":{"x_min":18.078125,"x_max":625,"ha":624,"o":"m 587 286 l 315 87 l 349 250 l 517 373 l 403 496 l 438 660 l 625 461 l 587 286 m 290 286 l 18 87 l 52 250 l 220 373 l 106 496 l 141 660 l 327 461 l 290 286 "},"©":{"x_min":97,"x_max":1126,"ha":1104,"o":"m 505 -6 q 195 112 303 -6 q 97 388 97 219 q 262 811 97 625 q 719 1017 444 1017 q 1028 898 920 1017 q 1126 622 1126 793 q 960 199 1126 385 q 505 -6 778 -6 m 702 934 q 316 761 470 934 q 176 405 176 604 q 256 174 176 262 q 517 76 346 76 q 902 249 748 76 q 1044 607 1044 409 q 963 836 1044 750 q 702 934 873 934 m 845 409 q 732 255 815 313 q 548 197 648 197 q 380 263 438 197 q 328 422 328 324 q 420 681 328 563 q 667 811 523 811 q 821 764 759 811 q 884 633 884 717 q 884 615 884 621 l 753 615 q 733 689 758 659 q 664 719 707 719 q 521 624 579 719 q 470 438 470 541 q 493 337 470 377 q 562 298 517 298 q 653 327 615 298 q 712 409 691 356 l 845 409 "},"ώ":{"x_min":63,"x_max":1031,"ha":1050,"o":"m 679 528 l 485 528 l 442 323 q 400 185 418 211 q 323 142 371 142 q 280 171 293 142 q 267 248 267 200 q 270 305 267 275 q 280 365 273 334 q 362 565 301 461 q 494 748 411 648 l 290 748 q 154 552 207 650 q 73 337 96 444 q 65 292 68 315 q 63 245 63 269 q 111 57 63 132 q 271 -29 167 -29 q 392 0 332 -29 q 487 78 451 28 q 552 0 503 29 q 662 -29 601 -29 q 894 96 787 -29 q 1017 337 989 205 q 1031 475 1031 405 q 1016 613 1031 545 q 974 748 1001 680 l 769 748 q 813 613 796 684 q 831 472 831 541 q 829 417 831 434 q 819 365 828 400 q 759 189 792 236 q 682 142 726 142 q 631 161 646 142 q 617 215 617 180 q 624 276 617 243 q 635 323 632 308 l 679 528 m 940 1039 l 693 823 l 594 823 l 762 1039 l 940 1039 "},"^":{"x_min":376.390625,"x_max":809.71875,"ha":828,"o":"m 809 836 l 715 836 l 625 987 l 473 836 l 376 836 l 565 1090 l 726 1090 l 809 836 "},"«":{"x_min":61.109375,"x_max":667.84375,"ha":624,"o":"m 544 87 l 358 286 l 395 461 l 667 660 l 631 496 l 464 374 l 579 250 l 544 87 m 247 87 l 61 286 l 98 461 l 370 660 l 334 496 l 167 374 l 282 250 l 247 87 "},"D":{"x_min":0,"x_max":990,"ha":968,"o":"m 616 1013 q 891 911 792 1013 q 990 646 990 810 q 976 523 990 593 q 749 146 927 293 q 340 0 572 0 l 0 0 l 216 1013 l 616 1013 m 577 837 l 384 837 l 244 182 l 411 182 q 644 276 547 182 q 765 504 734 364 q 772 549 769 526 q 775 595 775 571 q 729 763 775 697 q 577 837 677 837 "},"∙":{"x_min":111.5,"x_max":362.890625,"ha":304,"o":"m 318 528 l 111 528 l 155 735 l 362 735 l 318 528 "},"ÿ":{"x_min":3,"x_max":48.828125,"ha":125,"o":"m 47 0 q 36 -7 46 -7 q 28 0 28 -7 q 37 -4 30 -4 q 45 2 45 -1 l 37 0 q 30 9 29 0 q 45 19 32 19 l 48 15 l 48 19 l 47 0 m 37 1 q 47 8 45 1 q 45 16 50 16 q 32 8 34 16 q 37 1 29 1 m 27 0 l 28 25 l 14 0 l 7 22 l 3 0 l 5 25 l 15 1 l 28 25 l 27 0 "},"w":{"x_min":159,"x_max":1215.953125,"ha":1150,"o":"m 1215 749 l 847 0 l 646 0 l 641 536 l 411 0 l 210 0 l 159 749 l 361 749 l 373 227 l 588 748 l 792 749 l 788 227 l 1022 749 l 1215 749 "},"$":{"x_min":55,"x_max":834,"ha":800,"o":"m 829 693 l 642 693 q 645 725 645 715 q 627 796 645 768 q 569 830 610 825 l 515 577 q 711 486 649 540 q 773 348 773 433 q 767 293 773 316 q 759 258 761 270 q 623 56 724 134 q 386 -22 521 -22 l 357 -156 l 274 -156 l 303 -22 q 115 46 175 -10 q 55 211 55 102 q 63 300 55 251 l 246 300 q 244 275 245 286 q 244 258 244 265 q 264 173 244 207 q 335 128 285 140 l 396 413 q 154 627 154 444 q 162 700 154 659 q 278 900 190 825 q 517 981 374 981 l 537 1069 l 620 1069 l 600 981 q 774 920 714 981 q 834 748 834 859 q 829 693 834 722 m 436 598 l 486 831 q 397 797 431 831 q 352 712 362 764 q 350 686 350 693 q 436 598 350 628 m 419 127 q 513 172 480 140 q 559 258 546 205 q 562 289 562 269 q 474 387 562 360 l 419 127 "},"\\":{"x_min":221.59375,"x_max":406.296875,"ha":532,"o":"m 406 -128 l 314 -128 l 221 1040 l 313 1040 l 406 -128 "},"µ":{"x_min":-58.71875,"x_max":807.953125,"ha":754,"o":"m 648 0 l 478 0 l 492 68 q 414 9 455 30 q 328 -11 373 -11 q 262 3 294 -11 q 209 43 231 18 l 139 -277 l -58 -277 l 160 749 l 359 749 l 276 358 q 265 303 269 326 q 262 253 262 280 q 283 179 262 208 q 355 151 305 151 q 488 240 444 151 q 535 401 509 283 l 609 749 l 807 749 l 648 0 "},"Ι":{"x_min":41.671875,"x_max":466.671875,"ha":413,"o":"m 250 0 l 41 0 l 258 1013 l 466 1013 l 250 0 "},"Ύ":{"x_min":166.671875,"x_max":1427.78125,"ha":1289,"o":"m 1427 1012 l 987 376 l 906 0 l 697 0 l 777 376 l 591 1012 l 800 1012 l 926 576 l 1218 1012 l 1427 1012 m 534 1035 l 265 780 l 166 780 l 356 1035 l 534 1035 "},"’":{"x_min":133.328125,"x_max":408.328125,"ha":289,"o":"m 369 834 q 284 692 351 751 q 133 626 218 634 l 148 697 q 279 831 255 723 l 177 831 l 216 1013 l 408 1013 l 369 834 "},"Ν":{"x_min":0,"x_max":1050,"ha":946,"o":"m 833 0 l 618 0 l 354 696 l 205 0 l 0 0 l 216 1013 l 433 1013 l 697 315 l 845 1013 l 1050 1013 l 833 0 "},"-":{"x_min":86.5,"x_max":512.890625,"ha":525,"o":"m 472 279 l 86 279 l 126 468 l 512 468 l 472 279 "},"Q":{"x_min":93,"x_max":1118,"ha":1096,"o":"m 1004 47 l 866 -70 l 767 42 q 635 -12 706 4 q 490 -29 563 -29 q 194 83 301 -29 q 93 368 93 190 q 108 504 93 430 q 320 881 156 731 q 719 1040 494 1040 q 1015 926 908 1040 q 1118 638 1118 816 q 1113 575 1118 610 q 1102 506 1109 540 q 918 152 1061 311 l 1004 47 m 794 298 q 852 395 829 343 q 887 502 875 448 q 899 606 899 556 q 851 780 899 715 q 689 857 796 857 q 443 745 548 857 q 316 501 347 645 q 307 405 307 457 q 358 230 307 295 q 524 157 415 157 q 654 181 588 157 l 570 287 l 706 405 l 794 298 "},"ς":{"x_min":68,"x_max":832,"ha":768,"o":"m 827 448 l 643 448 q 606 571 643 533 q 500 610 569 610 q 359 537 422 610 q 289 394 305 475 q 281 319 281 352 q 471 155 281 191 q 661 29 661 119 q 656 -15 661 9 q 609 -150 641 -83 q 536 -278 586 -200 l 363 -278 q 419 -186 405 -212 q 455 -88 445 -136 q 456 -70 456 -82 q 356 -1 456 -25 q 169 59 212 33 q 68 261 68 122 q 81 382 68 316 q 240 660 118 547 q 533 777 368 777 q 747 701 663 777 q 832 504 832 625 q 827 448 832 478 "},"M":{"x_min":0,"x_max":1236.109375,"ha":1135,"o":"m 1019 0 l 823 0 l 998 818 l 618 0 l 403 0 l 369 819 l 194 0 l 0 0 l 216 1013 l 526 1013 l 561 240 l 924 1013 l 1236 1013 l 1019 0 "},"Ψ":{"x_min":118,"x_max":1210.78125,"ha":1085,"o":"m 1142 698 q 996 340 1087 436 q 633 200 891 227 l 589 0 l 403 0 l 446 200 q 191 282 265 220 q 118 471 118 344 q 148 698 118 557 l 216 1013 l 403 1013 l 335 694 q 316 600 317 608 q 308 518 308 554 q 346 417 308 451 q 485 383 385 383 l 620 1013 l 806 1013 l 671 383 q 883 472 821 383 q 955 694 919 525 l 1023 1013 l 1210 1013 l 1142 698 "},"C":{"x_min":94,"x_max":1109.71875,"ha":1043,"o":"m 1044 345 q 817 70 969 169 q 484 -29 666 -29 q 194 87 299 -29 q 94 375 94 197 q 107 506 94 441 q 323 885 157 737 q 724 1040 495 1040 q 999 939 888 1040 q 1109 679 1109 838 l 890 679 q 822 808 879 759 q 679 857 765 857 q 442 747 544 857 q 322 508 352 648 q 311 408 311 455 q 361 230 311 297 q 526 154 417 154 q 695 204 619 154 q 826 345 772 255 l 1044 345 "},"!":{"x_min":2.78125,"x_max":426.390625,"ha":307,"o":"m 368 739 q 298 515 354 676 q 216 282 256 398 l 113 282 q 138 584 129 473 q 158 739 148 696 l 216 1013 l 426 1013 l 368 739 m 206 0 l 2 0 l 45 203 l 250 203 l 206 0 "},"{":{"x_min":62,"x_max":717.5625,"ha":599,"o":"m 439 -285 q 211 -236 279 -285 q 156 -116 156 -195 q 188 37 156 -66 q 220 184 220 142 q 188 263 220 236 q 62 294 150 294 l 92 438 q 312 586 277 438 q 367 865 339 725 q 717 1015 441 1015 l 686 872 q 504 766 539 872 q 468 547 486 657 q 283 366 431 411 q 370 317 345 352 q 395 232 395 282 q 367 91 395 187 q 339 -43 339 -4 q 368 -115 339 -89 q 470 -141 397 -141 l 439 -285 "},"X":{"x_min":0,"x_max":1111.109375,"ha":999,"o":"m 894 0 l 654 0 l 520 351 l 238 0 l 0 0 l 426 516 l 216 1013 l 455 1013 l 587 659 l 869 1013 l 1111 1013 l 688 519 l 894 0 "},"#":{"x_min":58.71875,"x_max":1172.328125,"ha":1117,"o":"m 1172 722 l 1093 582 l 900 582 l 805 417 l 1007 417 l 926 279 l 726 278 l 564 -6 l 411 -5 l 575 279 l 407 278 l 244 -5 l 92 -6 l 254 278 l 58 279 l 137 417 l 333 417 l 427 582 l 222 582 l 303 722 l 507 721 l 669 1006 l 821 1005 l 661 721 l 827 721 l 991 1005 l 1142 1006 l 979 721 l 1172 722 m 751 582 l 578 582 l 482 416 l 655 417 l 751 582 "},"ι":{"x_min":41.671875,"x_max":401.390625,"ha":389,"o":"m 241 0 l 41 0 l 201 749 l 401 749 l 241 0 "},"Ά":{"x_min":29.171875,"x_max":995.828125,"ha":1072,"o":"m 534 1035 l 265 780 l 166 780 l 356 1035 l 534 1035 m 995 0 l 776 0 l 752 208 l 359 208 l 247 0 l 29 0 l 606 1012 l 845 1012 l 995 0 m 733 376 l 683 809 l 450 376 l 733 376 "},")":{"x_min":-61.5,"x_max":486,"ha":486,"o":"m 466 357 q 323 14 430 187 q 84 -293 233 -134 l -61 -293 q 145 23 60 -142 q 266 358 230 189 q 286 478 280 421 q 292 598 292 536 q 273 808 292 705 q 217 1013 254 910 l 363 1013 q 453 780 420 901 q 486 539 486 660 q 481 448 486 490 q 466 357 477 405 "},"ε":{"x_min":54.171875,"x_max":741.671875,"ha":742,"o":"m 708 259 q 573 47 679 123 q 334 -25 473 -25 q 127 27 200 -25 q 54 159 54 80 q 95 280 54 220 q 218 389 136 339 q 161 447 183 413 q 140 521 140 481 q 143 552 140 542 q 273 717 163 653 q 487 776 373 776 q 672 726 604 776 q 741 576 741 676 q 733 508 741 544 l 554 508 q 558 539 558 524 q 532 592 558 576 q 458 608 506 608 q 381 590 423 608 q 331 544 338 573 q 329 517 329 524 q 357 467 329 480 q 433 455 386 455 q 465 455 450 455 q 497 456 481 455 l 465 308 l 394 308 q 309 291 345 308 q 251 223 261 269 q 250 205 250 216 q 294 152 250 166 q 376 143 325 143 q 463 174 427 143 q 509 259 498 206 l 708 259 "},"Δ":{"x_min":0,"x_max":981.953125,"ha":1057,"o":"m 981 0 l 0 0 l 602 1013 l 811 1013 l 981 0 m 752 175 l 654 765 l 304 175 l 752 175 "},"}":{"x_min":-61,"x_max":593.171875,"ha":597,"o":"m 562 294 q 348 145 382 294 q 293 -134 320 4 q -61 -285 218 -285 l -30 -141 q 146 -30 109 -141 q 187 190 166 79 q 372 366 228 325 q 285 422 310 385 q 260 511 260 458 q 288 652 260 558 q 317 780 317 747 q 290 847 317 826 q 186 872 259 872 l 216 1015 q 446 967 377 1015 q 503 849 503 927 q 467 689 503 797 q 432 543 432 582 q 466 465 432 492 q 593 438 501 438 l 562 294 "},"‰":{"x_min":150,"x_max":1738,"ha":1775,"o":"m 965 484 q 1119 425 1065 484 q 1168 288 1168 373 q 1083 76 1168 172 q 853 -29 990 -29 q 699 29 753 -29 q 651 167 651 81 q 734 380 651 285 q 965 484 826 484 m 886 120 q 981 160 944 120 q 1018 251 1018 201 q 998 308 1018 287 q 931 333 974 333 q 836 292 873 333 q 800 201 800 251 q 821 142 800 165 q 886 120 843 120 m 1115 984 l 311 -28 l 200 -29 l 1004 983 l 1115 984 m 461 984 q 614 925 560 984 q 663 789 663 873 q 579 577 663 671 q 350 472 486 472 q 200 527 251 472 q 150 667 150 583 q 232 879 150 786 q 461 984 323 984 m 429 835 q 330 794 368 835 q 293 702 293 753 q 315 644 293 667 q 380 621 337 621 q 479 661 441 621 q 517 753 517 702 q 494 811 517 788 q 429 835 472 835 m 1534 484 q 1689 425 1634 484 q 1738 288 1738 373 q 1653 76 1738 172 q 1423 -29 1559 -29 q 1268 29 1323 -29 q 1220 167 1220 81 q 1303 380 1220 285 q 1534 484 1395 484 m 1455 120 q 1551 160 1514 120 q 1588 251 1588 201 q 1568 308 1588 287 q 1501 333 1544 333 q 1405 292 1442 333 q 1369 201 1369 251 q 1390 142 1369 165 q 1455 120 1412 120 "},"a":{"x_min":37,"x_max":779,"ha":786,"o":"m 699 0 l 489 0 q 483 56 483 30 q 483 74 483 65 q 483 93 483 87 q 364 5 433 37 q 227 -26 296 -26 q 88 21 139 -26 q 37 148 37 68 q 43 205 37 173 q 206 409 75 355 q 438 452 259 431 q 573 522 562 468 q 575 538 575 527 q 540 591 575 572 q 466 611 506 611 q 373 581 415 611 q 321 502 331 552 l 132 502 q 259 704 160 634 q 494 775 359 775 q 678 730 594 775 q 779 590 779 677 q 774 554 779 573 l 685 137 q 681 113 682 120 q 680 90 680 105 q 706 33 680 48 l 699 0 m 528 297 l 542 366 q 369 322 431 340 q 238 216 254 287 q 236 196 236 202 q 261 144 236 163 q 324 126 287 126 q 455 174 398 126 q 528 297 513 223 "},"—":{"x_min":63.890625,"x_max":1037.5,"ha":1039,"o":"m 1005 297 l 63 297 l 95 450 l 1037 450 l 1005 297 "},"=":{"x_min":72.21875,"x_max":934.71875,"ha":828,"o":"m 905 502 l 136 502 l 165 635 l 934 635 l 905 502 m 841 204 l 72 204 l 101 339 l 870 339 l 841 204 "},"N":{"x_min":0,"x_max":1050,"ha":949,"o":"m 833 0 l 618 0 l 354 695 l 205 0 l 0 0 l 216 1013 l 433 1013 l 697 315 l 845 1013 l 1050 1013 l 833 0 "},"ρ":{"x_min":-59.609375,"x_max":814,"ha":810,"o":"m 361 -17 q 272 0 311 -17 q 204 48 233 17 l 134 -278 l -59 -278 l 79 370 q 229 656 118 548 q 523 775 350 775 q 739 692 664 775 q 814 476 814 609 q 801 372 814 426 q 641 95 766 208 q 361 -17 516 -17 m 490 607 q 350 529 409 607 q 282 377 300 465 q 273 301 273 341 q 297 195 273 234 q 387 147 326 147 q 512 210 450 147 q 596 374 573 274 q 601 408 600 390 q 603 445 603 426 q 573 561 603 516 q 490 607 544 607 "},"2":{"x_min":63.890625,"x_max":917,"ha":828,"o":"m 910 685 q 772 452 879 540 q 554 325 726 415 q 343 168 411 250 l 790 168 l 754 0 l 63 0 q 252 301 97 175 q 534 480 263 311 q 708 673 687 576 q 711 707 711 685 q 676 791 711 758 q 592 824 642 824 q 484 780 533 824 q 397 633 427 730 l 215 633 q 384 903 259 807 q 633 988 495 988 q 835 923 753 988 q 917 746 917 858 q 916 725 917 735 q 910 685 915 715 "},"¯":{"x_min":204.171875,"x_max":1012.5,"ha":771,"o":"m 979 958 l 204 958 l 237 1111 l 1012 1111 l 979 958 "},"Z":{"x_min":0,"x_max":1020.828125,"ha":906,"o":"m 983 836 l 290 182 l 831 182 l 793 0 l 0 0 l 37 176 l 729 830 l 188 830 l 227 1013 l 1020 1013 l 983 836 "},"u":{"x_min":43.0625,"x_max":827.78125,"ha":782,"o":"m 668 0 l 473 0 l 493 88 q 365 10 434 39 q 229 -19 297 -19 q 90 31 137 -19 q 43 167 43 81 q 51 239 43 201 l 159 749 l 358 749 l 262 296 q 256 246 256 273 q 278 173 256 200 q 347 146 300 146 q 465 192 411 146 q 534 304 520 239 l 629 749 l 827 749 l 668 0 "},"k":{"x_min":0,"x_max":834.46875,"ha":771,"o":"m 688 0 l 450 0 l 338 316 l 247 237 l 195 0 l 0 0 l 216 1013 l 412 1013 l 298 483 l 592 748 l 834 748 l 513 469 l 688 0 "},"Η":{"x_min":0,"x_max":1054.171875,"ha":950,"o":"m 837 0 l 627 0 l 723 450 l 305 450 l 209 0 l 0 0 l 216 1013 l 426 1013 l 345 635 l 763 635 l 844 1013 l 1054 1013 l 837 0 "},"Α":{"x_min":0,"x_max":966.671875,"ha":1043,"o":"m 966 0 l 747 0 l 723 208 l 330 208 l 218 0 l 0 0 l 577 1013 l 816 1013 l 966 0 m 704 376 l 654 809 l 420 376 l 704 376 "},"s":{"x_min":48,"x_max":770.21875,"ha":775,"o":"m 728 229 q 574 33 702 105 q 334 -29 464 -29 q 134 26 211 -29 q 48 196 48 87 q 52 245 48 219 l 254 245 q 252 226 252 238 q 290 153 252 178 q 385 128 329 128 q 467 144 428 128 q 526 205 517 165 q 435 282 537 254 q 241 336 246 333 q 133 482 133 384 q 133 502 133 493 q 138 533 133 511 q 281 716 162 647 q 506 778 385 778 q 696 718 623 778 q 770 551 770 659 q 768 522 770 531 l 574 522 q 546 596 580 570 q 460 622 512 622 q 385 606 423 622 q 340 556 346 590 q 430 477 328 509 q 624 416 619 419 q 733 274 733 366 q 728 229 733 245 "},"B":{"x_min":0,"x_max":965,"ha":938,"o":"m 792 547 q 876 473 846 523 q 906 359 906 423 q 900 304 906 330 q 733 75 869 158 q 461 0 612 0 l 0 0 l 216 1013 l 694 1013 q 883 964 809 1013 q 965 811 965 910 q 958 754 965 789 q 900 630 944 687 q 792 547 857 573 m 571 621 q 675 646 628 621 q 745 730 734 676 q 748 753 748 747 q 707 816 748 794 q 614 838 666 838 l 377 838 l 331 621 l 571 621 m 485 182 q 607 211 554 182 q 685 311 671 245 q 688 337 688 330 q 644 418 688 390 q 540 446 600 446 l 294 446 l 237 182 l 485 182 "},"…":{"x_min":0,"x_max":862.5,"ha":963,"o":"m 205 0 l 0 0 l 44 207 l 250 207 l 205 0 m 511 0 l 305 0 l 350 207 l 555 207 l 511 0 m 818 0 l 612 0 l 656 207 l 862 207 l 818 0 "},"?":{"x_min":151.390625,"x_max":851,"ha":785,"o":"m 844 734 q 739 563 823 634 q 591 454 665 508 q 498 293 512 387 l 313 293 l 334 391 q 433 521 348 455 q 631 724 618 667 q 634 759 634 736 q 602 837 634 809 q 524 866 571 866 q 421 827 468 866 q 345 699 367 782 l 151 699 q 301 955 172 860 q 562 1040 416 1040 q 763 980 684 1040 q 851 799 851 913 q 849 768 851 785 q 844 734 848 751 m 445 0 l 243 0 l 286 203 l 488 203 l 445 0 "},"H":{"x_min":0,"x_max":1054.171875,"ha":953,"o":"m 837 0 l 627 0 l 723 450 l 305 450 l 209 0 l 0 0 l 216 1013 l 426 1013 l 345 635 l 763 635 l 844 1013 l 1054 1013 l 837 0 "},"ν":{"x_min":159.71875,"x_max":900,"ha":828,"o":"m 900 749 l 473 0 l 266 0 l 159 749 l 381 749 l 418 211 l 688 749 l 900 749 "},"c":{"x_min":68,"x_max":855.5625,"ha":828,"o":"m 811 282 q 638 58 755 142 q 379 -26 520 -26 q 152 56 236 -26 q 68 274 68 139 q 69 319 68 303 q 77 366 70 334 q 238 651 113 536 q 536 774 370 774 q 770 699 684 774 q 855 486 855 625 l 640 486 q 598 572 631 538 q 509 607 565 607 q 362 533 427 607 q 284 378 303 467 q 276 303 276 342 q 305 189 276 232 q 408 139 339 139 q 522 179 469 139 q 602 282 574 220 l 811 282 "},"¶":{"x_min":168,"x_max":791.609375,"ha":678,"o":"m 211 892 l 242 892 l 261 761 l 336 892 l 366 891 l 334 741 l 313 741 l 341 866 l 267 739 l 246 741 l 226 871 l 197 741 l 177 741 l 211 892 m 492 854 l 464 730 q 403 691 456 691 q 378 691 390 691 q 360 696 366 695 l 362 713 l 405 706 q 444 733 436 706 l 451 763 q 402 741 435 741 q 362 778 362 741 q 363 797 362 790 q 445 860 375 860 q 463 860 455 860 q 492 854 471 860 m 469 841 l 444 843 q 381 796 393 843 q 380 782 380 790 q 409 756 380 756 q 458 796 448 756 l 469 841 m 777 988 l 713 988 l 502 -1 l 439 -1 l 650 988 l 527 988 l 316 -1 l 253 -1 l 381 601 q 220 653 284 601 q 168 764 168 697 q 172 805 168 784 q 312 989 194 918 q 534 1053 420 1053 l 791 1053 l 777 988 "},"β":{"x_min":-59.71875,"x_max":818.0625,"ha":789,"o":"m 626 538 q 728 453 691 508 q 765 324 765 398 q 758 262 765 297 q 629 53 731 136 q 398 -29 526 -29 q 209 51 273 -29 l 138 -278 l -59 -278 l 134 627 q 272 911 173 812 q 561 1021 381 1021 q 738 969 666 1021 q 818 818 818 912 q 818 794 818 805 q 812 769 813 777 q 626 538 780 622 m 373 136 q 491 181 437 136 q 559 291 545 227 q 563 324 563 310 q 514 414 563 384 q 393 444 465 444 l 426 600 q 542 634 490 600 q 608 731 594 669 q 611 761 611 741 q 584 829 611 802 q 512 857 556 857 q 381 775 429 857 q 331 622 352 725 l 281 393 q 270 329 273 358 q 266 266 266 299 q 287 174 266 206 q 373 136 313 136 "},"Μ":{"x_min":0,"x_max":1236.109375,"ha":1132,"o":"m 1019 0 l 823 0 l 998 818 l 618 0 l 402 0 l 369 818 l 194 0 l 0 0 l 216 1013 l 526 1013 l 561 241 l 925 1013 l 1236 1013 l 1019 0 "},"Ό":{"x_min":166.390625,"x_max":1297,"ha":1271,"o":"m 670 -29 q 373 83 480 -29 q 272 369 272 190 q 287 505 272 431 q 499 883 335 733 q 898 1040 672 1040 q 1195 926 1088 1040 q 1297 640 1297 819 q 1292 574 1297 611 q 1281 505 1288 538 q 1067 127 1231 277 q 670 -29 895 -29 m 709 154 q 946 266 842 154 q 1068 506 1039 367 q 1077 554 1074 530 q 1080 604 1080 577 q 1028 781 1080 715 q 859 857 970 857 q 622 747 724 857 q 500 506 529 648 q 489 408 489 454 q 540 230 489 297 q 709 154 598 154 m 534 1035 l 265 780 l 166 780 l 356 1035 l 534 1035 "},"Ή":{"x_min":166.671875,"x_max":1465.28125,"ha":1361,"o":"m 1248 0 l 1038 0 l 1134 450 l 716 450 l 620 0 l 411 0 l 627 1012 l 837 1012 l 756 635 l 1175 635 l 1255 1012 l 1465 1012 l 1248 0 m 534 1035 l 265 780 l 166 780 l 356 1035 l 534 1035 "},"•":{"x_min":72.609375,"x_max":805.953125,"ha":775,"o":"m 799 508 q 642 252 767 358 q 362 147 517 147 q 153 227 233 147 q 72 434 72 308 q 74 471 72 452 q 79 508 75 490 q 237 761 111 655 q 517 868 364 868 q 725 786 644 868 q 805 580 805 704 q 804 545 805 563 q 799 508 803 526 "},"¥":{"x_min":129,"x_max":1052.609375,"ha":931,"o":"m 329 625 l 216 1013 l 424 1013 l 550 576 l 842 1013 l 1052 1013 l 783 625 l 910 625 l 878 472 l 678 472 l 620 389 l 860 389 l 827 236 l 581 236 l 531 0 l 322 0 l 372 236 l 129 236 l 162 389 l 398 389 l 374 472 l 180 472 l 212 625 l 329 625 "},"(":{"x_min":58,"x_max":605.5625,"ha":486,"o":"m 326 -293 l 180 -293 q 92 -66 123 -177 q 58 182 58 59 q 62 266 58 223 q 76 357 66 309 q 219 703 112 526 q 459 1013 312 854 l 605 1013 q 400 699 483 862 q 276 358 312 528 q 250 114 250 236 q 268 -92 250 7 q 326 -293 287 -191 "},"U":{"x_min":66,"x_max":1028.171875,"ha":926,"o":"m 889 362 q 713 79 851 187 q 399 -29 575 -29 q 157 51 249 -29 q 66 269 66 132 q 77 362 66 310 l 215 1013 l 425 1013 l 289 386 q 283 325 283 351 q 322 201 283 250 q 440 153 362 153 q 601 225 531 153 q 683 386 662 289 l 818 1013 l 1028 1013 l 889 362 "},"γ":{"x_min":159.71875,"x_max":888.890625,"ha":815,"o":"m 888 749 l 465 37 l 397 -278 l 197 -278 l 265 37 q 252 154 265 94 q 229 275 240 215 l 159 749 l 366 749 l 425 284 l 681 749 l 888 749 "},"α":{"x_min":65.28125,"x_max":881.953125,"ha":835,"o":"m 722 0 l 530 0 l 552 101 q 434 7 498 40 q 298 -25 370 -25 q 118 59 179 -25 q 65 256 65 133 q 77 372 65 315 q 209 643 112 529 q 473 775 323 775 q 593 743 540 775 q 668 656 645 712 l 687 749 l 881 749 l 722 0 m 490 601 q 347 527 408 601 q 276 375 295 464 q 268 303 268 339 q 294 194 268 235 q 388 144 326 144 q 534 217 472 144 q 606 370 587 280 q 613 416 612 402 q 613 439 613 431 q 587 551 613 510 q 490 601 555 601 "},"F":{"x_min":0,"x_max":923.609375,"ha":778,"o":"m 886 837 l 384 837 l 334 606 l 775 606 l 737 431 l 297 431 l 205 0 l 0 0 l 216 1013 l 923 1013 l 886 837 "},"­":{"x_min":63.890625,"x_max":800,"ha":801,"o":"m 768 297 l 63 297 l 95 450 l 800 450 l 768 297 "},":":{"x_min":0,"x_max":363.890625,"ha":304,"o":"m 319 528 l 112 528 l 156 735 l 363 735 l 319 528 m 206 0 l 0 0 l 44 207 l 251 207 l 206 0 "},"Χ":{"x_min":0,"x_max":1111.109375,"ha":978,"o":"m 894 0 l 654 0 l 520 351 l 238 0 l 0 0 l 426 516 l 216 1013 l 455 1013 l 587 660 l 869 1013 l 1111 1013 l 688 519 l 894 0 "},"*":{"x_min":273,"x_max":870.21875,"ha":828,"o":"m 870 740 l 665 688 l 763 524 l 624 438 l 542 612 l 385 439 l 285 523 l 455 688 l 273 741 l 346 880 l 517 816 l 559 1013 l 698 1012 l 656 816 l 850 880 l 870 740 "},"†":{"x_min":133.328125,"x_max":980.5625,"ha":894,"o":"m 680 804 l 980 804 l 941 622 l 641 622 l 508 0 l 298 0 l 431 622 l 133 622 l 172 804 l 470 804 l 515 1011 l 725 1011 l 680 804 "},"°":{"x_min":207,"x_max":579,"ha":460,"o":"m 352 808 q 243 847 280 808 q 207 949 207 887 q 266 1101 207 1034 q 431 1175 331 1175 q 544 1133 505 1175 q 579 1034 579 1095 q 517 883 579 951 q 352 808 451 808 m 374 908 q 447 940 419 908 q 476 1010 476 972 q 459 1056 476 1038 q 409 1075 442 1075 q 335 1042 363 1075 q 308 973 308 1010 q 324 926 308 944 q 374 908 341 908 "},"V":{"x_min":215.671875,"x_max":1111.5,"ha":997,"o":"m 1111 1013 l 549 0 l 346 0 l 215 1013 l 447 1013 l 500 256 l 882 1013 l 1111 1013 "},"Ξ":{"x_min":0,"x_max":950,"ha":800,"o":"m 909 826 l 181 826 l 222 1012 l 950 1012 l 909 826 m 773 432 l 156 432 l 197 617 l 813 617 l 773 432 m 751 0 l 0 0 l 38 183 l 790 183 l 751 0 "}," ":{"x_min":0,"x_max":0,"ha":853},"Ϋ":{"x_min":216.671875,"x_max":1052.78125,"ha":914,"o":"m 833 1046 l 677 1046 l 713 1215 l 869 1215 l 833 1046 m 593 1046 l 436 1046 l 472 1215 l 629 1215 l 593 1046 m 1052 1012 l 612 376 l 531 0 l 322 0 l 402 376 l 216 1012 l 425 1012 l 551 576 l 843 1012 l 1052 1012 "},"0":{"x_min":136,"x_max":897,"ha":828,"o":"m 409 -26 q 201 75 273 -26 q 136 320 136 167 q 270 761 136 558 q 624 984 417 984 q 833 881 760 984 q 897 633 897 789 q 763 195 897 396 q 409 -26 617 -26 m 444 137 q 616 310 540 137 q 687 636 687 470 q 663 770 687 720 q 589 821 639 821 q 418 647 495 821 q 346 320 346 485 q 369 186 346 235 q 444 137 393 137 "},"”":{"x_min":133.328125,"x_max":686.109375,"ha":567,"o":"m 369 834 q 284 692 351 751 q 133 626 218 634 l 148 697 q 279 831 255 723 l 177 831 l 216 1013 l 408 1013 l 369 834 m 647 834 q 562 692 629 751 q 411 626 495 634 l 426 697 q 556 831 533 723 l 455 831 l 494 1013 l 686 1013 l 647 834 "},"@":{"x_min":64,"x_max":1397,"ha":1374,"o":"m 1104 -52 q 602 -211 866 -211 q 191 -77 334 -211 q 64 237 64 41 q 298 759 64 522 q 916 1019 554 1019 q 1285 898 1159 1019 q 1397 621 1397 793 q 1255 251 1397 417 q 900 75 1105 75 q 807 91 827 75 q 777 188 777 114 q 670 105 727 135 q 550 75 612 75 q 412 121 457 75 q 367 244 367 168 q 493 539 367 391 q 787 696 627 696 q 875 672 840 696 q 934 604 910 648 l 984 673 l 1108 673 q 1001 446 1045 542 q 908 236 912 259 q 919 199 902 213 q 961 185 936 185 q 1173 317 1077 185 q 1269 599 1269 449 q 1188 811 1269 732 q 908 905 1094 905 q 383 692 597 905 q 188 262 188 498 q 292 5 188 102 q 625 -103 407 -103 q 848 -67 729 -103 q 1066 26 968 -32 l 1104 -52 m 872 483 q 877 500 876 491 q 879 515 877 509 q 848 572 879 548 q 779 596 818 596 q 598 480 682 596 q 521 270 521 372 q 540 201 521 227 q 598 175 559 175 q 719 221 664 175 q 804 333 775 268 l 872 483 "},"Ί":{"x_min":166.671875,"x_max":836.109375,"ha":732,"o":"m 534 1035 l 265 780 l 166 780 l 356 1035 l 534 1035 m 619 0 l 411 0 l 627 1012 l 836 1012 l 619 0 "},"i":{"x_min":13.890625,"x_max":430.5625,"ha":326,"o":"m 391 830 l 191 830 l 230 1013 l 430 1013 l 391 830 m 213 0 l 13 0 l 173 749 l 373 749 l 213 0 "},"Β":{"x_min":0.46875,"x_max":965.71875,"ha":962,"o":"m 792 547 q 876 473 846 523 q 906 359 906 423 q 900 304 906 330 q 733 75 869 158 q 461 0 612 0 l 0 0 l 217 1013 l 694 1013 q 883 964 810 1013 q 965 811 965 910 q 958 754 965 789 q 901 630 944 687 q 792 547 857 573 m 572 621 q 676 646 629 621 q 745 730 734 676 q 748 753 748 747 q 707 816 748 794 q 615 838 666 838 l 377 838 l 331 621 l 572 621 m 485 182 q 607 211 554 182 q 685 311 671 245 q 688 337 688 330 q 644 418 688 390 q 540 446 600 446 l 294 446 l 238 182 l 485 182 "},"υ":{"x_min":60,"x_max":815.390625,"ha":767,"o":"m 744 416 q 683 204 714 276 q 558 40 636 95 q 320 -25 466 -25 q 114 44 179 -25 q 60 214 60 102 q 64 287 60 248 q 79 369 69 326 l 159 749 l 359 749 l 279 369 q 266 298 269 321 q 264 253 264 276 q 284 171 264 201 q 357 142 304 142 q 493 247 441 142 q 545 422 520 303 l 615 749 l 815 749 l 744 416 "},"]":{"x_min":-63.890625,"x_max":565.28125,"ha":446,"o":"m 284 -300 l -63 -300 l -33 -154 l 129 -154 l 348 866 l 185 865 l 217 1013 l 565 1013 l 284 -300 "},"m":{"x_min":0,"x_max":1183,"ha":1174,"o":"m 1065 0 l 866 0 l 972 483 q 972 514 972 493 q 949 573 972 550 q 887 596 926 596 q 783 554 829 596 q 724 454 737 512 l 627 0 l 433 0 l 536 481 q 538 497 538 490 q 538 509 538 505 q 450 596 538 596 q 348 555 390 596 q 294 453 306 515 l 197 0 l 0 0 l 159 748 l 348 748 l 330 665 q 438 745 379 715 q 558 775 498 775 q 669 744 620 775 q 748 659 717 713 q 854 744 794 713 q 980 775 915 775 q 1127 719 1071 775 q 1183 576 1183 663 q 1182 555 1183 566 q 1177 523 1181 544 l 1065 0 "},"χ":{"x_min":-63.890625,"x_max":898.609375,"ha":847,"o":"m 695 -299 l 484 -299 l 393 66 l 151 -299 l -63 -299 l 311 233 l 173 749 l 390 749 l 465 400 l 687 749 l 898 749 l 551 238 l 695 -299 "},"8":{"x_min":109,"x_max":901,"ha":828,"o":"m 733 516 q 810 438 785 484 q 835 337 835 391 q 714 90 835 202 q 408 -29 586 -29 q 181 44 261 -29 q 109 215 109 111 q 163 388 109 304 q 313 516 217 472 q 251 589 271 548 q 231 674 231 630 q 348 889 231 793 q 624 986 465 986 q 825 920 750 986 q 901 760 901 855 q 860 629 901 692 q 733 516 819 566 m 539 590 q 660 633 613 590 q 707 730 707 677 q 677 800 707 772 q 590 828 648 828 q 469 784 516 828 q 423 684 423 740 q 452 617 423 644 q 539 590 481 590 m 442 135 q 578 193 525 135 q 627 315 627 245 q 597 399 627 368 q 503 436 564 436 q 370 377 424 436 q 317 248 317 318 q 348 167 317 200 q 442 135 379 135 "},"ί":{"x_min":41.671875,"x_max":593.0625,"ha":389,"o":"m 241 0 l 41 0 l 201 748 l 401 748 l 241 0 m 593 1039 l 345 823 l 247 823 l 415 1039 l 593 1039 "},"Ζ":{"x_min":0,"x_max":1020.828125,"ha":886,"o":"m 983 835 l 290 182 l 831 182 l 793 0 l 0 0 l 37 176 l 729 829 l 188 829 l 227 1012 l 1020 1012 l 983 835 "},"R":{"x_min":0,"x_max":983,"ha":947,"o":"m 836 0 l 608 0 q 600 56 600 27 q 613 155 600 93 q 626 212 620 184 q 634 257 631 240 q 637 293 637 274 q 608 368 637 343 q 512 393 580 393 l 291 393 l 208 0 l 0 0 l 216 1013 l 708 1013 q 905 958 828 1013 q 983 798 983 903 q 976 734 983 772 q 905 586 958 652 q 769 485 848 513 q 840 431 819 466 q 861 345 861 395 q 845 237 861 305 q 831 177 837 204 q 824 143 826 151 q 819 94 819 115 q 823 57 819 72 q 843 31 828 43 l 836 0 m 642 838 l 387 838 l 330 572 l 575 572 q 692 604 640 572 q 763 704 750 640 q 766 733 766 714 q 731 810 766 782 q 642 838 696 838 "},"o":{"x_min":68,"x_max":854,"ha":871,"o":"m 374 -26 q 149 56 230 -26 q 68 274 68 139 q 79 371 68 318 q 245 660 116 545 q 545 775 373 775 q 772 691 690 775 q 854 471 854 608 q 842 371 854 427 q 675 86 805 199 q 374 -26 545 -26 m 409 141 q 560 216 496 141 q 635 373 616 281 q 644 444 644 409 q 613 556 644 513 q 507 607 577 607 q 357 530 423 607 q 282 373 303 466 q 276 305 276 335 q 305 191 276 232 q 409 141 339 141 "},"5":{"x_min":112,"x_max":927.28125,"ha":828,"o":"m 836 319 q 662 59 801 158 q 387 -29 535 -29 q 194 30 269 -29 q 112 211 112 95 q 116 264 112 236 l 309 264 q 306 245 307 255 q 306 231 306 236 q 340 156 306 184 q 427 129 375 129 q 548 172 492 129 q 630 308 612 222 q 636 354 636 330 q 597 451 636 414 q 505 488 559 488 q 430 472 466 488 q 362 420 395 456 l 185 428 l 362 958 l 927 958 l 892 790 l 465 790 l 398 592 q 483 634 438 619 q 570 649 529 649 q 762 571 681 649 q 843 380 843 493 q 842 360 843 369 q 836 319 841 350 "},"7":{"x_min":204.5625,"x_max":965.671875,"ha":828,"o":"m 933 808 q 614 435 737 626 q 408 0 490 244 l 204 0 q 403 422 278 236 q 715 789 510 583 l 232 789 l 268 958 l 965 958 l 933 808 "},"K":{"x_min":0,"x_max":1080.5625,"ha":996,"o":"m 900 0 l 647 0 l 415 462 l 284 355 l 208 0 l 0 0 l 216 1013 l 425 1013 l 336 595 l 820 1013 l 1080 1013 l 590 603 l 900 0 "},",":{"x_min":-51.390625,"x_max":250,"ha":303,"o":"m 206 5 q 117 -150 186 -87 q -51 -238 48 -213 l -34 -159 q 111 -2 86 -116 l 0 -2 l 44 205 l 250 205 l 206 5 "},"d":{"x_min":66,"x_max":937.890625,"ha":836,"o":"m 721 0 l 529 0 l 551 101 q 435 7 500 41 q 297 -26 369 -26 q 118 58 178 -26 q 66 256 66 132 q 78 373 66 314 q 209 642 113 530 q 468 775 321 775 q 589 743 536 775 q 667 656 642 712 l 743 1013 l 937 1013 l 721 0 m 489 601 q 346 524 408 601 q 273 372 293 459 q 268 337 269 349 q 267 301 267 326 q 295 188 267 233 q 387 143 323 143 q 535 216 472 143 q 607 369 587 279 q 613 416 612 401 q 614 439 614 431 q 587 550 614 510 q 489 601 555 601 "},"¨":{"x_min":436.109375,"x_max":869.296875,"ha":933,"o":"m 833 1046 l 677 1046 l 713 1216 l 869 1216 l 833 1046 m 593 1045 l 436 1046 l 472 1216 l 629 1215 l 593 1045 "},"E":{"x_min":0,"x_max":951.390625,"ha":824,"o":"m 761 0 l 0 0 l 216 1013 l 951 1013 l 913 837 l 384 837 l 338 621 l 823 621 l 786 446 l 301 446 l 245 186 l 801 186 l 761 0 "},"Y":{"x_min":215.671875,"x_max":1051.78125,"ha":931,"o":"m 1051 1013 l 611 376 l 530 0 l 321 0 l 401 376 l 215 1013 l 424 1013 l 550 576 l 842 1013 l 1051 1013 "},"\"":{"x_min":129.171875,"x_max":568.015625,"ha":454,"o":"m 486 604 l 354 604 l 436 988 l 568 988 l 486 604 m 261 604 l 129 604 l 211 988 l 343 988 l 261 604 "},"‹":{"x_min":111.109375,"x_max":967.796875,"ha":828,"o":"m 795 17 l 111 352 l 140 487 l 967 823 l 934 671 l 319 421 l 827 169 l 795 17 "},"„":{"x_min":-51.390625,"x_max":527.78125,"ha":588,"o":"m 206 5 q 117 -150 185 -87 q -51 -238 48 -213 l -34 -159 q 111 -2 86 -116 l 0 -2 l 44 205 l 249 205 l 206 5 m 484 5 q 395 -150 463 -87 q 226 -238 326 -213 l 243 -159 q 388 -2 363 -116 l 277 -2 l 322 205 l 527 205 l 484 5 "},"δ":{"x_min":67,"x_max":886.453125,"ha":835,"o":"m 807 352 q 648 76 770 177 q 348 -25 525 -25 q 141 47 215 -25 q 67 242 67 120 q 68 285 67 270 q 77 333 69 301 q 214 581 108 478 q 471 690 326 690 q 251 864 369 787 l 283 1013 l 886 1013 l 853 856 l 532 856 q 728 683 662 765 q 817 440 817 571 q 815 398 817 414 q 807 352 814 383 m 537 551 q 366 497 438 551 q 272 344 294 444 q 266 292 266 321 q 297 184 266 228 q 387 140 328 140 q 527 203 468 140 q 600 344 581 260 q 607 406 607 378 q 591 491 607 455 q 537 551 575 528 "},"έ":{"x_min":54.171875,"x_max":801.390625,"ha":742,"o":"m 708 259 q 573 47 679 123 q 334 -25 473 -25 q 127 27 200 -25 q 54 159 54 80 q 95 280 54 220 q 218 389 136 339 q 161 447 183 413 q 140 521 140 481 q 143 552 140 542 q 273 717 163 653 q 487 776 373 776 q 672 726 604 776 q 741 576 741 676 q 733 508 741 544 l 554 508 q 558 539 558 524 q 532 592 558 576 q 458 608 506 608 q 381 590 423 608 q 331 544 338 573 q 329 517 329 524 q 357 467 329 480 q 433 455 386 455 q 465 455 450 455 q 497 456 481 455 l 465 308 l 394 308 q 309 291 345 308 q 251 223 261 269 q 250 205 250 216 q 294 152 250 166 q 376 143 325 143 q 463 174 427 143 q 509 259 498 206 l 708 259 m 801 1039 l 554 823 l 455 823 l 623 1039 l 801 1039 "},"ω":{"x_min":63,"x_max":1031,"ha":1050,"o":"m 635 323 q 624 276 632 308 q 617 215 617 243 q 631 161 617 180 q 682 142 646 142 q 759 189 726 142 q 819 365 792 236 q 829 417 828 400 q 831 472 831 435 q 813 613 831 542 q 769 749 796 685 l 974 749 q 1016 613 1001 680 q 1031 475 1031 546 q 1017 337 1031 405 q 894 96 989 205 q 662 -29 787 -29 q 552 0 601 -29 q 487 78 503 29 q 392 0 451 28 q 271 -29 332 -29 q 111 57 167 -29 q 63 246 63 132 q 65 292 63 269 q 73 337 68 315 q 154 553 96 444 q 290 749 207 650 l 494 749 q 362 565 411 648 q 280 365 301 461 q 270 305 273 335 q 267 248 267 275 q 280 171 267 200 q 323 142 293 142 q 400 185 371 142 q 442 323 418 211 l 485 528 l 679 528 l 635 323 "},"´":{"x_min":129.171875,"x_max":343.015625,"ha":299,"o":"m 261 604 l 129 604 l 211 988 l 343 988 l 261 604 "},"±":{"x_min":29.171875,"x_max":930.5625,"ha":828,"o":"m 901 480 l 586 480 l 538 254 l 398 253 l 446 480 l 131 480 l 161 615 l 475 615 l 523 841 l 664 842 l 615 615 l 930 615 l 901 480 m 798 0 l 29 0 l 58 136 l 827 136 l 798 0 "},"|":{"x_min":-51.375,"x_max":354.28125,"ha":240,"o":"m 242 462 l 99 462 l 211 984 l 354 983 l 242 462 m 91 -242 l -51 -242 l 60 280 l 203 280 l 91 -242 "},"ϋ":{"x_min":60,"x_max":815.390625,"ha":767,"o":"m 708 810 l 579 810 l 608 952 l 737 952 l 708 810 m 444 810 l 315 810 l 344 952 l 473 952 l 444 810 m 744 417 q 683 204 714 276 q 558 40 636 96 q 320 -25 466 -25 q 114 44 179 -25 q 60 214 60 103 q 64 287 60 248 q 79 369 69 326 l 159 748 l 359 748 l 279 369 q 266 298 269 321 q 264 253 264 276 q 284 171 264 201 q 357 142 304 142 q 493 247 441 142 q 545 422 520 303 l 615 748 l 815 748 l 744 417 "},"§":{"x_min":62,"x_max":748,"ha":731,"o":"m 732 469 q 570 274 705 337 q 619 146 619 223 q 614 105 619 126 q 488 -76 591 -7 q 280 -142 392 -142 q 127 -93 185 -142 q 62 60 62 -39 q 66 108 62 83 l 236 108 q 261 27 236 53 q 325 1 287 1 q 395 23 363 1 q 436 83 428 46 q 438 99 438 88 q 350 195 438 146 q 185 287 188 285 q 96 433 96 351 q 100 476 96 452 q 155 582 113 537 q 262 659 196 627 q 230 707 242 680 q 219 762 219 734 q 221 790 219 770 q 342 978 246 907 q 535 1042 430 1042 q 686 991 625 1042 q 748 843 748 940 q 748 826 748 834 q 748 807 748 812 l 580 807 q 583 830 583 823 q 559 882 583 865 q 499 900 535 900 q 432 881 463 900 q 395 829 401 862 q 470 736 385 781 q 642 648 556 691 q 737 508 737 587 q 732 469 737 490 m 490 333 q 562 421 562 377 q 545 464 562 444 q 496 502 528 484 l 337 595 q 280 551 296 572 q 263 509 263 530 q 289 456 263 481 q 352 413 310 435 l 490 333 "},"b":{"x_min":0,"x_max":815,"ha":822,"o":"m 410 -26 q 290 6 341 -26 q 213 101 240 39 l 191 0 l 0 0 l 216 1013 l 411 1013 l 334 656 q 448 744 383 713 q 581 775 513 775 q 762 688 701 775 q 815 489 815 613 q 802 374 815 431 q 672 106 767 218 q 410 -26 558 -26 m 490 600 q 344 524 406 600 q 272 371 291 462 q 265 325 266 339 q 265 302 265 310 q 291 193 265 234 q 388 145 323 145 q 534 221 472 145 q 607 374 587 285 q 614 441 614 412 q 587 551 614 510 q 490 600 555 600 "},"q":{"x_min":66,"x_max":880.953125,"ha":833,"o":"m 657 -298 l 462 -298 l 547 97 q 299 -26 440 -26 q 118 58 179 -26 q 66 256 66 132 q 78 371 66 314 q 209 642 113 530 q 470 775 321 775 q 588 742 536 775 q 669 654 640 709 l 689 750 l 880 750 l 657 -298 m 489 601 q 347 527 408 601 q 276 378 296 464 q 271 344 272 357 q 270 305 270 330 q 294 194 270 236 q 388 143 325 143 q 535 216 471 143 q 608 369 589 280 q 617 439 617 403 q 589 550 617 509 q 489 601 555 601 "},"Ω":{"x_min":0.5625,"x_max":1114,"ha":1108,"o":"m 1009 0 l 590 0 l 633 199 q 797 368 727 265 q 889 580 866 471 q 897 659 897 621 q 844 802 897 750 q 689 855 791 855 q 475 770 564 855 q 365 563 392 691 q 355 466 355 519 q 382 316 355 384 q 463 199 409 248 l 420 0 l 0 0 l 38 176 l 240 176 q 142 459 142 294 q 154 569 142 512 q 359 907 197 774 q 727 1040 521 1040 q 1008 945 902 1040 q 1114 689 1114 851 q 1101 578 1114 637 q 1010 362 1077 466 q 844 176 943 257 l 1047 176 l 1009 0 "},"ύ":{"x_min":60,"x_max":815.390625,"ha":767,"o":"m 744 417 q 683 204 714 276 q 558 40 636 96 q 320 -25 466 -25 q 114 44 179 -25 q 60 214 60 103 q 64 287 60 248 q 79 369 69 326 l 159 748 l 359 748 l 280 369 q 268 310 273 342 q 264 251 264 278 q 284 171 264 201 q 357 142 305 142 q 493 247 441 142 q 545 422 520 303 l 615 748 l 815 748 l 744 417 m 801 1039 l 554 823 l 455 823 l 623 1039 l 801 1039 "},"z":{"x_min":0,"x_max":809.71875,"ha":753,"o":"m 663 0 l 0 0 l 33 154 l 537 591 l 151 591 l 184 749 l 809 749 l 774 584 l 279 165 l 698 165 l 663 0 "},"™":{"x_min":197,"x_max":1167.84375,"ha":1063,"o":"m 601 921 l 451 921 l 362 506 l 256 505 l 345 920 l 197 921 l 216 1013 l 620 1013 l 601 921 m 1059 506 l 960 506 l 1047 915 l 858 506 l 751 506 l 734 915 l 646 506 l 549 506 l 658 1013 l 812 1013 l 828 628 l 1012 1013 l 1167 1013 l 1059 506 "},"ή":{"x_min":0,"x_max":781.953125,"ha":779,"o":"m 609 -278 l 409 -278 l 552 390 q 559 425 554 395 q 563 483 563 455 q 545 568 563 536 q 477 605 523 605 q 363 554 418 605 q 295 441 309 502 l 201 0 l 0 0 l 159 748 l 361 748 l 343 665 q 461 743 395 713 q 588 773 526 773 q 734 712 683 773 q 781 562 781 655 q 773 484 781 524 l 609 -278 m 718 1039 l 470 823 l 372 823 l 540 1039 l 718 1039 "},"Θ":{"x_min":93,"x_max":1117,"ha":1092,"o":"m 491 -29 q 194 83 301 -29 q 93 369 93 190 q 108 505 93 431 q 322 883 156 731 q 719 1040 494 1040 q 1015 926 908 1040 q 1117 640 1117 817 q 1112 574 1117 611 q 1101 505 1108 538 q 889 127 1051 277 q 491 -29 718 -29 m 530 154 q 769 266 666 154 q 890 506 861 365 q 902 605 902 559 q 850 781 902 714 q 680 858 792 858 q 441 746 545 858 q 319 506 348 648 q 310 458 313 480 q 308 409 308 435 q 359 230 308 297 q 530 154 417 154 m 768 430 l 408 430 l 443 593 l 802 593 l 768 430 "},"®":{"x_min":97,"x_max":1126,"ha":1104,"o":"m 505 -6 q 195 112 303 -6 q 97 388 97 219 q 262 811 97 625 q 719 1017 444 1017 q 1028 898 920 1017 q 1126 622 1126 793 q 960 199 1126 385 q 505 -6 778 -6 m 702 934 q 316 761 470 934 q 176 405 176 604 q 256 174 176 262 q 517 76 346 76 q 902 249 748 76 q 1044 607 1044 409 q 963 836 1044 750 q 702 934 873 934 m 822 190 l 678 190 q 673 223 673 205 q 679 270 673 241 q 691 325 686 299 q 698 356 697 351 q 699 377 699 361 q 680 423 699 408 q 620 439 662 439 l 481 439 l 427 189 l 296 190 l 434 829 l 743 829 q 868 795 821 829 q 916 694 916 761 q 911 654 916 675 q 865 559 900 604 q 781 497 831 515 q 825 464 812 486 q 839 411 839 441 q 833 357 839 384 q 819 299 823 318 q 814 267 816 280 q 812 251 812 254 q 827 212 812 223 l 822 190 m 699 718 l 540 717 l 505 551 l 659 552 q 734 572 702 552 q 776 635 766 593 q 778 652 778 641 q 756 700 778 683 q 699 718 735 718 "},"~":{"x_min":140.28125,"x_max":1058.328125,"ha":949,"o":"m 1058 968 q 956 750 1029 831 q 740 656 872 656 q 565 744 648 656 q 437 832 483 832 q 327 775 369 832 q 279 656 295 732 l 140 656 q 244 871 168 787 q 458 968 331 968 q 630 879 548 968 q 766 791 712 791 q 872 849 833 791 q 919 968 898 888 l 1058 968 "},"Ε":{"x_min":0,"x_max":951.390625,"ha":824,"o":"m 761 0 l 0 0 l 216 1012 l 951 1012 l 913 836 l 384 836 l 338 621 l 823 621 l 786 446 l 301 446 l 245 186 l 801 186 l 761 0 "},"³":{"x_min":115,"x_max":621,"ha":564,"o":"m 584 555 q 481 413 565 466 q 308 365 405 365 q 173 402 224 365 q 115 520 115 444 q 120 565 115 531 l 244 565 q 269 486 244 512 q 331 461 294 461 q 404 486 370 461 q 447 553 438 512 q 450 575 450 570 q 413 627 450 614 q 324 641 377 641 l 341 722 q 427 737 392 722 q 484 804 474 758 q 486 819 486 809 q 465 864 486 847 q 413 882 445 882 q 349 857 379 882 q 303 783 319 833 l 180 783 q 285 930 208 878 q 438 976 354 976 q 568 939 515 976 q 621 841 621 902 q 618 813 621 832 q 583 744 609 771 q 514 695 557 716 q 569 651 550 678 q 589 587 589 624 q 584 555 589 571 "},"[":{"x_min":-63.890625,"x_max":563.890625,"ha":444,"o":"m 282 -300 l -63 -300 l 216 1013 l 563 1013 l 531 866 l 372 866 l 154 -154 l 313 -153 l 282 -300 "},"L":{"x_min":0,"x_max":744.453125,"ha":763,"o":"m 704 0 l 0 0 l 216 1013 l 425 1013 l 248 186 l 744 186 l 704 0 "},"σ":{"x_min":68.0625,"x_max":1011.109375,"ha":940,"o":"m 977 594 l 838 594 q 852 480 852 542 q 840 369 852 426 q 675 83 801 191 q 373 -25 550 -25 q 148 56 229 -25 q 68 273 68 138 q 79 372 68 316 q 241 656 116 544 q 543 775 372 775 q 605 768 572 775 q 708 750 691 750 l 1011 750 l 977 594 m 409 142 q 561 216 497 142 q 636 373 616 282 q 644 444 644 409 q 613 558 644 515 q 509 608 579 608 q 358 530 425 608 q 281 373 302 465 q 275 305 275 336 q 304 191 275 233 q 409 142 338 142 "},"ζ":{"x_min":51,"x_max":809.828125,"ha":701,"o":"m 615 -32 q 570 -157 601 -97 q 491 -278 538 -218 l 313 -278 q 388 -180 359 -226 q 429 -80 416 -134 q 432 -59 432 -63 q 410 -19 432 -30 q 352 -8 388 -8 q 313 -9 340 -8 q 277 -11 287 -11 q 109 45 167 -11 q 51 201 51 102 q 55 248 51 223 q 60 283 59 272 q 215 596 92 436 q 475 856 319 732 l 230 856 l 264 1013 l 809 1013 l 786 904 q 459 660 594 800 q 265 318 302 496 q 257 247 257 276 q 439 131 257 136 q 622 26 622 127 q 615 -32 622 5 "},"θ":{"x_min":85,"x_max":836,"ha":817,"o":"m 575 1022 q 779 906 711 1022 q 836 655 836 809 q 817 486 836 569 q 665 148 776 290 q 348 -25 530 -25 q 143 79 211 -25 q 85 315 85 169 q 103 481 85 395 q 257 831 144 679 q 575 1022 395 1022 m 636 590 q 643 636 640 612 q 646 687 646 660 q 622 807 646 762 q 536 862 594 862 q 397 763 456 862 q 330 590 351 688 l 636 590 m 604 440 l 298 440 q 289 378 293 410 q 285 306 285 345 q 304 186 285 229 q 383 131 329 131 q 530 248 462 131 q 604 440 582 337 "},"Ο":{"x_min":93,"x_max":1118,"ha":1092,"o":"m 491 -29 q 194 83 301 -29 q 93 369 93 190 q 108 505 93 431 q 320 883 156 733 q 719 1040 493 1040 q 1016 926 909 1040 q 1118 640 1118 819 q 1113 574 1118 611 q 1102 505 1109 538 q 888 127 1052 277 q 491 -29 716 -29 m 530 154 q 768 266 665 154 q 888 506 859 366 q 900 605 900 559 q 848 781 900 715 q 680 857 790 857 q 441 747 543 857 q 321 506 351 649 q 310 408 310 454 q 361 230 310 297 q 530 154 419 154 "},"Γ":{"x_min":0,"x_max":920.828125,"ha":742,"o":"m 883 836 l 387 836 l 208 0 l 0 0 l 216 1012 l 920 1012 l 883 836 "}," ":{"x_min":0,"x_max":0,"ha":375},"%":{"x_min":150,"x_max":1168,"ha":1213,"o":"m 965 484 q 1119 425 1065 484 q 1168 288 1168 373 q 1083 76 1168 172 q 853 -29 990 -29 q 699 29 753 -29 q 651 167 651 81 q 734 380 651 285 q 965 484 826 484 m 886 120 q 981 160 944 120 q 1018 251 1018 201 q 998 308 1018 287 q 931 333 974 333 q 836 292 873 333 q 800 201 800 251 q 821 142 800 165 q 886 120 843 120 m 1115 984 l 311 -28 l 200 -29 l 1004 983 l 1115 984 m 461 984 q 614 925 560 984 q 663 789 663 873 q 579 577 663 671 q 350 472 486 472 q 200 527 251 472 q 150 667 150 583 q 232 879 150 786 q 461 984 323 984 m 429 835 q 330 794 368 835 q 293 702 293 753 q 315 644 293 667 q 380 621 337 621 q 479 661 441 621 q 517 753 517 702 q 494 811 517 788 q 429 835 472 835 "},"P":{"x_min":0,"x_max":925,"ha":838,"o":"m 286 361 l 208 0 l 0 0 l 216 1013 l 666 1013 q 856 944 787 1013 q 925 762 925 875 q 916 682 925 723 q 784 452 886 544 q 544 361 681 361 l 286 361 m 601 837 l 388 837 l 326 544 l 527 544 q 647 577 597 544 q 716 683 702 615 q 721 718 721 700 q 688 802 721 768 q 601 837 655 837 "},"Έ":{"x_min":166.671875,"x_max":1362.5,"ha":1235,"o":"m 1172 0 l 411 0 l 627 1012 l 1362 1012 l 1325 836 l 795 836 l 750 621 l 1234 621 l 1197 446 l 712 446 l 656 186 l 1212 186 l 1172 0 m 534 1035 l 265 780 l 166 780 l 356 1035 l 534 1035 "},"Ώ":{"x_min":179.140625,"x_max":1295,"ha":1289,"o":"m 1190 0 l 771 0 l 814 199 q 977 369 907 265 q 1070 580 1047 474 q 1078 659 1078 621 q 1025 802 1078 750 q 869 855 972 855 q 656 770 744 855 q 545 563 572 691 q 535 466 535 519 q 562 316 535 384 q 643 199 589 248 l 600 0 l 180 0 l 218 176 l 420 176 q 322 459 322 294 q 334 569 322 512 q 539 907 377 774 q 908 1040 701 1040 q 1189 945 1083 1040 q 1295 689 1295 851 q 1282 578 1295 637 q 1191 362 1258 466 q 1025 176 1124 257 l 1228 176 l 1190 0 m 547 1092 l 277 837 l 179 837 l 369 1092 l 547 1092 "},"_":{"x_min":-8.71875,"x_max":727.390625,"ha":828,"o":"m 696 -333 l -8 -333 l 21 -190 l 727 -190 l 696 -333 "},"Ϊ":{"x_min":41.671875,"x_max":601.390625,"ha":503,"o":"m 565 1046 l 409 1046 l 445 1215 l 601 1215 l 565 1046 m 325 1046 l 168 1046 l 204 1215 l 361 1215 l 325 1046 m 250 0 l 41 0 l 258 1012 l 466 1012 l 250 0 "},"+":{"x_min":118.0625,"x_max":888.890625,"ha":828,"o":"m 859 353 l 558 353 l 483 0 l 343 0 l 418 353 l 118 353 l 147 489 l 447 489 l 522 839 l 662 840 l 587 489 l 888 489 l 859 353 "},"½":{"x_min":147.984375,"x_max":1176,"ha":1188,"o":"m 1171 380 q 1042 230 1153 301 q 800 101 921 165 q 842 94 804 95 q 943 93 880 93 l 970 93 l 994 93 l 1013 93 l 1030 93 q 1067 93 1048 93 q 1106 93 1087 93 l 1085 0 l 649 0 l 661 38 q 781 181 686 115 q 950 281 864 230 q 1045 376 1035 333 q 1047 385 1047 380 q 1047 391 1047 390 q 1024 440 1047 420 q 967 461 1001 461 q 898 435 930 461 q 849 354 866 409 l 734 354 q 841 505 761 451 q 996 554 911 554 q 1123 516 1071 554 q 1176 413 1176 479 q 1171 380 1176 399 m 1081 998 l 262 -28 l 147 -27 l 970 999 l 1081 998 m 361 422 l 237 422 l 317 798 l 170 799 l 186 875 q 323 902 278 875 q 378 973 359 925 l 479 973 l 361 422 "},"Ρ":{"x_min":0,"x_max":925,"ha":837,"o":"m 286 361 l 208 0 l 0 0 l 216 1012 l 666 1012 q 856 943 787 1012 q 925 762 925 874 q 916 681 925 723 q 784 452 886 544 q 544 361 681 361 l 286 361 m 601 836 l 389 836 l 326 544 l 527 544 q 647 577 597 544 q 716 683 702 614 q 721 717 721 699 q 688 801 721 767 q 601 836 655 836 "},"'":{"x_min":133.328125,"x_max":408.328125,"ha":289,"o":"m 369 834 q 284 692 351 752 q 133 626 218 632 l 148 697 q 279 830 256 726 l 177 830 l 216 1013 l 408 1013 l 369 834 "},"ª":{"x_min":153,"x_max":524,"ha":393,"o":"m 483 625 l 379 625 q 376 649 376 636 q 376 672 376 663 q 248 611 325 611 q 153 700 153 611 q 155 727 153 718 q 297 846 178 828 q 421 886 416 864 q 407 919 425 907 q 366 931 390 931 q 319 917 339 931 q 296 877 300 904 l 201 877 q 265 977 215 942 q 382 1013 315 1013 q 473 992 433 1013 q 524 921 524 965 q 524 903 524 908 l 478 694 q 475 669 475 677 q 487 641 475 648 l 483 625 m 398 773 l 405 808 q 297 779 351 793 q 254 733 260 762 q 260 700 248 712 q 297 689 273 689 q 363 712 334 689 q 398 773 391 736 "},"΅":{"x_min":230.5625,"x_max":786.109375,"ha":753,"o":"m 756 810 l 627 810 l 656 952 l 786 952 l 756 810 m 748 1064 l 479 810 l 380 810 l 570 1064 l 748 1064 m 359 810 l 230 810 l 259 952 l 388 952 l 359 810 "},"T":{"x_min":177.78125,"x_max":1025,"ha":894,"o":"m 986 831 l 686 831 l 508 0 l 298 0 l 476 831 l 177 831 l 216 1013 l 1025 1013 l 986 831 "},"Φ":{"x_min":99,"x_max":1067,"ha":1032,"o":"m 565 0 l 385 0 l 411 121 q 186 205 273 121 q 99 423 99 290 q 101 462 99 440 q 109 508 104 483 q 278 775 143 669 q 575 892 406 875 l 601 1013 l 782 1013 l 756 892 q 981 798 896 878 q 1067 589 1067 718 q 1065 557 1067 573 q 1057 507 1064 540 q 889 230 1020 340 q 591 121 757 121 l 565 0 m 626 285 q 779 354 711 285 q 861 508 841 418 q 868 564 868 540 q 829 677 868 632 q 720 729 791 722 l 626 285 m 446 285 l 540 729 q 387 661 450 718 q 304 516 323 604 q 298 462 298 493 q 337 337 298 389 q 446 285 377 285 "},"j":{"x_min":-111.109375,"x_max":458.328125,"ha":361,"o":"m 419 830 l 219 830 l 258 1013 l 458 1013 l 419 830 m 216 -119 q 123 -267 194 -221 q -44 -308 62 -308 l -111 -308 l -75 -140 l -54 -140 q -2 -130 -20 -140 q 23 -88 16 -120 l 201 749 l 401 749 l 216 -119 "},"Σ":{"x_min":0,"x_max":956.953125,"ha":849,"o":"m 772 0 l 0 0 l 30 140 l 480 526 l 202 862 l 234 1012 l 956 1012 l 919 836 l 494 836 l 731 523 l 336 175 l 809 175 l 772 0 "},"1":{"x_min":343.0625,"x_max":840.28125,"ha":828,"o":"m 629 0 l 434 0 l 579 674 l 343 674 l 372 810 q 555 837 494 810 q 680 984 638 874 l 840 984 l 629 0 "},"›":{"x_min":40.28125,"x_max":895.828125,"ha":828,"o":"m 866 352 l 40 17 l 72 168 l 683 420 l 179 671 l 212 823 l 895 487 l 866 352 "},"<":{"x_min":111.109375,"x_max":967.796875,"ha":828,"o":"m 795 17 l 111 352 l 140 487 l 967 823 l 934 671 l 319 421 l 827 169 l 795 17 "},"£":{"x_min":25,"x_max":839,"ha":814,"o":"m 724 38 q 601 -9 659 5 q 498 -24 544 -24 q 337 8 448 -24 q 244 25 279 25 q 163 12 205 25 q 72 -29 122 0 l 25 113 q 173 227 137 186 q 224 359 224 284 q 212 440 224 391 l 94 440 l 109 515 l 183 515 q 169 588 175 551 q 163 662 163 626 q 167 710 163 687 q 314 910 193 831 q 560 984 426 984 q 754 920 679 984 q 839 713 839 848 q 839 693 839 702 q 839 668 839 676 l 644 668 q 647 702 647 692 q 613 798 647 766 q 526 830 579 830 q 426 796 472 830 q 367 705 379 762 q 363 663 363 684 q 373 591 363 631 q 393 515 383 551 l 588 515 l 573 440 l 405 440 q 361 270 405 334 q 217 135 328 220 q 296 160 258 152 q 368 168 334 168 q 487 151 402 168 q 554 143 529 143 q 621 152 590 143 q 694 189 652 162 l 724 38 "},"t":{"x_min":129.171875,"x_max":572.328125,"ha":511,"o":"m 411 -6 q 338 -8 388 -6 q 284 -11 287 -11 q 164 17 200 -11 q 129 111 129 45 q 140 202 129 147 l 228 608 l 130 608 l 159 749 l 256 749 l 299 951 l 500 951 l 456 749 l 572 748 l 543 608 l 427 608 l 337 191 q 348 152 331 162 q 397 143 365 143 q 420 143 409 143 q 443 143 431 143 l 411 -6 "},"¬":{"x_min":63.890625,"x_max":800,"ha":801,"o":"m 723 93 l 570 93 l 614 297 l 63 297 l 95 450 l 800 450 l 723 93 "},"λ":{"x_min":0,"x_max":701.390625,"ha":775,"o":"m 701 0 l 491 0 l 440 444 l 195 0 l 0 0 l 387 697 l 348 1013 l 551 1013 l 701 0 "},"W":{"x_min":216,"x_max":1507.65625,"ha":1399,"o":"m 1507 1013 l 1002 0 l 802 0 l 810 776 l 489 0 l 288 0 l 216 1013 l 431 1013 l 452 297 l 750 1012 l 972 1013 l 967 298 l 1292 1013 l 1507 1013 "},">":{"x_min":40.28125,"x_max":895.828125,"ha":828,"o":"m 866 352 l 40 17 l 72 168 l 683 420 l 179 671 l 212 823 l 895 487 l 866 352 "},"v":{"x_min":158.71875,"x_max":899,"ha":828,"o":"m 899 749 l 472 0 l 265 0 l 158 749 l 380 749 l 417 211 l 687 749 l 899 749 "},"τ":{"x_min":126.390625,"x_max":777.78125,"ha":699,"o":"m 744 593 l 534 593 l 408 0 l 209 0 l 336 593 l 126 593 l 159 749 l 777 749 l 744 593 "},"ξ":{"x_min":48.609375,"x_max":813.890625,"ha":715,"o":"m 637 -14 q 586 -157 622 -86 q 500 -299 551 -229 l 336 -299 q 401 -194 390 -212 q 450 -85 441 -125 q 452 -62 452 -68 q 429 -21 452 -32 q 366 -10 405 -10 q 331 -11 354 -10 q 300 -13 308 -13 q 120 45 191 -13 q 48 202 48 103 q 55 259 48 227 q 148 426 76 354 q 315 530 215 493 q 241 583 268 551 q 211 669 211 621 q 213 699 211 679 q 265 790 225 747 q 352 856 301 828 l 205 856 l 238 1013 l 813 1013 l 780 856 l 680 857 q 526 840 581 857 q 413 736 430 811 q 411 719 411 728 q 411 707 411 711 q 487 618 411 642 q 638 602 540 602 l 681 602 l 648 446 l 609 446 q 405 425 475 446 q 259 284 281 387 q 255 248 255 263 q 449 151 255 165 q 643 33 643 137 q 643 6 643 19 q 637 -14 638 -8 "},"&":{"x_min":50,"x_max":956.953125,"ha":1007,"o":"m 909 -1 l 676 -1 l 625 83 q 280 -47 427 -47 q 70 100 123 -47 q 50 215 50 158 q 116 401 50 315 q 339 568 188 493 q 298 644 305 628 q 279 732 279 689 q 283 769 279 750 q 403 951 308 883 q 596 1013 491 1013 q 746 966 685 1013 q 808 837 808 919 q 808 815 808 826 q 802 789 803 797 q 721 644 785 711 q 583 539 674 596 l 691 359 q 776 527 747 441 l 956 527 q 772 223 898 358 l 909 -1 m 629 787 q 632 810 632 804 q 613 854 632 838 q 566 870 594 870 q 506 849 534 870 q 469 792 478 829 q 467 769 467 778 q 482 711 467 742 q 513 660 490 694 q 583 714 551 682 q 629 787 620 753 m 545 214 l 412 441 q 294 352 332 395 q 256 262 256 308 q 268 204 256 233 q 376 135 298 135 q 458 153 416 135 q 545 214 500 172 "},"Λ":{"x_min":0,"x_max":894.453125,"ha":974,"o":"m 894 0 l 666 0 l 608 757 l 225 0 l 0 0 l 561 1013 l 763 1013 l 894 0 "},"I":{"x_min":40.671875,"x_max":465.671875,"ha":365,"o":"m 249 0 l 40 0 l 257 1013 l 465 1013 l 249 0 "},"G":{"x_min":93,"x_max":1109.71875,"ha":1057,"o":"m 970 -1 l 829 -1 l 830 118 q 659 7 747 44 q 473 -29 572 -29 q 188 87 291 -29 q 93 373 93 197 q 108 509 93 437 q 319 884 158 737 q 715 1040 490 1040 q 993 950 883 1040 q 1109 698 1109 854 l 884 698 q 817 813 873 768 q 683 858 761 858 q 443 746 546 858 q 321 505 350 648 q 312 456 315 478 q 310 408 310 434 q 364 228 310 295 q 539 154 423 154 q 716 219 632 154 q 840 374 794 279 l 627 374 l 665 548 l 1087 548 l 970 -1 "},"ΰ":{"x_min":60,"x_max":815.390625,"ha":767,"o":"m 756 810 l 627 810 l 656 952 l 786 952 l 756 810 m 360 810 l 230 810 l 260 952 l 389 952 l 360 810 m 738 1039 l 491 823 l 393 823 l 561 1039 l 738 1039 m 744 417 q 683 204 714 276 q 558 40 636 96 q 320 -25 466 -25 q 114 44 179 -25 q 60 214 60 103 q 64 287 60 248 q 79 369 69 326 l 159 748 l 359 748 l 280 369 q 268 310 273 342 q 264 251 264 278 q 284 171 264 201 q 357 142 305 142 q 493 247 441 142 q 545 422 520 303 l 615 748 l 815 748 l 744 417 "},"`":{"x_min":140.28125,"x_max":412.5,"ha":288,"o":"m 330 654 l 140 654 l 177 830 q 262 970 194 909 q 412 1040 330 1031 l 397 969 q 309 922 338 952 q 268 836 279 892 l 369 836 l 330 654 "},"·":{"x_min":111.5,"x_max":362.890625,"ha":304,"o":"m 318 528 l 111 528 l 155 735 l 362 735 l 318 528 "},"Υ":{"x_min":216.671875,"x_max":1052.78125,"ha":914,"o":"m 1052 1013 l 612 376 l 531 0 l 322 0 l 402 376 l 216 1013 l 425 1013 l 551 576 l 843 1013 l 1052 1013 "},"r":{"x_min":0,"x_max":595.828125,"ha":513,"o":"m 552 564 q 383 536 440 564 q 284 395 306 498 l 200 0 l 0 0 l 159 748 l 343 748 l 315 618 q 595 768 430 768 l 552 564 "},"x":{"x_min":0,"x_max":884.71875,"ha":826,"o":"m 738 0 l 504 0 l 418 238 l 230 0 l 0 0 l 334 382 l 170 749 l 398 749 l 483 522 l 662 749 l 884 749 l 570 384 l 738 0 "},"μ":{"x_min":-59.71875,"x_max":806.953125,"ha":754,"o":"m 647 0 l 477 0 l 491 68 q 413 9 454 30 q 327 -11 372 -11 q 261 3 293 -11 q 208 43 230 18 l 138 -278 l -59 -278 l 159 749 l 358 749 l 275 358 q 264 304 268 326 q 261 254 261 281 q 282 180 261 208 q 354 152 304 152 q 487 240 443 152 q 534 401 508 283 l 608 749 l 806 749 l 647 0 "},"h":{"x_min":0,"x_max":783,"ha":782,"o":"m 669 0 l 469 0 l 552 390 q 560 444 557 412 q 564 491 564 476 q 548 572 564 544 q 483 607 529 607 q 366 554 425 607 q 295 441 308 501 l 201 0 l 0 0 l 216 1013 l 418 1013 l 343 665 q 463 743 398 715 q 591 772 527 772 q 737 712 687 772 q 783 566 783 658 q 780 529 783 549 q 773 484 778 509 l 669 0 "},".":{"x_min":0,"x_max":250,"ha":303,"o":"m 205 0 l 0 0 l 44 207 l 250 207 l 205 0 "},"φ":{"x_min":68,"x_max":1012,"ha":990,"o":"m 481 -278 l 306 -278 l 362 -22 q 145 60 222 -22 q 68 274 68 143 q 79 376 68 320 q 206 627 109 519 q 451 769 310 742 l 412 581 q 328 495 362 552 q 282 378 294 438 q 275 312 275 341 q 304 200 275 245 q 397 145 333 155 l 531 776 l 680 776 q 922 694 832 776 q 1012 474 1012 613 q 1000 379 1012 431 q 835 93 964 209 q 537 -22 705 -22 l 481 -278 m 571 145 q 720 225 656 145 q 794 381 774 290 q 799 413 798 404 q 801 445 801 423 q 771 559 801 516 q 671 611 737 611 l 571 145 "},";":{"x_min":-50,"x_max":365.28125,"ha":306,"o":"m 320 528 l 112 528 l 156 735 l 365 735 l 320 528 m 209 6 q 120 -151 188 -90 q -50 -238 52 -212 l -31 -158 q 70 -99 36 -135 q 113 0 105 -64 l 0 0 l 44 207 l 252 207 l 209 6 "},"f":{"x_min":106.953125,"x_max":643.0625,"ha":525,"o":"m 556 609 l 433 609 l 302 0 l 106 0 l 238 609 l 131 608 l 160 748 l 266 749 q 348 949 297 894 q 548 1019 411 1019 l 643 1015 l 609 855 l 547 855 q 480 826 497 855 q 461 749 476 817 l 586 749 l 556 609 "},"“":{"x_min":133.71875,"x_max":683.71875,"ha":567,"o":"m 324 631 l 133 631 l 171 807 q 256 948 187 886 q 405 1017 325 1010 l 392 947 q 261 813 285 921 l 362 813 l 324 631 m 601 631 l 410 631 l 448 807 q 534 948 465 886 q 683 1017 603 1010 l 669 947 q 539 813 562 921 l 640 813 l 601 631 "},"A":{"x_min":0,"x_max":966.671875,"ha":1069,"o":"m 966 0 l 747 0 l 723 208 l 330 208 l 218 0 l 0 0 l 577 1013 l 816 1013 l 966 0 m 704 376 l 654 810 l 420 376 l 704 376 "},"6":{"x_min":134,"x_max":903,"ha":828,"o":"m 903 734 l 700 734 q 672 802 700 776 q 604 828 645 828 q 481 769 537 828 q 385 571 413 700 q 587 638 478 638 q 784 564 714 638 q 847 390 847 497 q 731 109 847 235 q 414 -29 603 -29 q 195 62 266 -29 q 134 283 134 141 q 153 455 134 365 q 364 865 210 722 q 654 988 496 988 q 831 929 760 988 q 903 772 903 870 q 903 753 903 763 q 903 734 903 739 m 454 128 q 591 196 536 128 q 647 346 647 265 q 616 439 647 403 q 518 480 581 480 q 378 410 433 480 q 328 267 328 347 q 360 167 328 207 q 454 128 392 128 "},"‘":{"x_min":133.71875,"x_max":405.9375,"ha":289,"o":"m 324 631 l 133 631 l 171 807 q 256 948 187 886 q 405 1017 325 1010 l 392 947 q 261 813 285 921 l 362 813 l 324 631 "},"ϊ":{"x_min":41.671875,"x_max":540.28125,"ha":389,"o":"m 511 810 l 381 810 l 411 952 l 540 952 l 511 810 m 247 810 l 118 810 l 147 952 l 276 952 l 247 810 m 241 0 l 41 0 l 201 748 l 401 748 l 241 0 "},"π":{"x_min":87.5,"x_max":998.609375,"ha":938,"o":"m 965 593 l 876 593 l 750 0 l 548 0 l 675 593 l 412 593 l 286 0 l 87 0 l 213 593 l 126 593 l 159 749 l 998 749 l 965 593 "},"ά":{"x_min":65.28125,"x_max":881.953125,"ha":835,"o":"m 722 0 l 530 0 l 552 101 q 434 7 498 40 q 298 -25 370 -25 q 118 59 179 -25 q 65 256 65 133 q 77 372 65 315 q 209 643 112 529 q 473 775 323 775 q 593 743 540 775 q 668 656 645 712 l 687 749 l 881 749 l 722 0 m 490 601 q 347 527 408 601 q 276 375 295 464 q 268 303 268 339 q 294 194 268 235 q 388 144 326 144 q 534 217 472 144 q 606 370 587 280 q 613 416 612 402 q 613 439 613 431 q 587 551 613 510 q 490 601 555 601 m 801 1039 l 554 823 l 455 823 l 623 1039 l 801 1039 "},"O":{"x_min":93,"x_max":1118,"ha":1094,"o":"m 491 -29 q 194 83 301 -29 q 93 369 93 190 q 108 505 93 431 q 320 883 156 733 q 719 1040 493 1040 q 1016 926 909 1040 q 1118 640 1118 819 q 1113 574 1118 611 q 1102 505 1109 538 q 888 127 1052 277 q 491 -29 716 -29 m 530 154 q 768 266 665 154 q 888 506 859 366 q 900 605 900 559 q 848 781 900 715 q 680 857 790 857 q 441 747 543 857 q 321 506 351 649 q 310 408 310 454 q 361 230 310 297 q 530 154 419 154 "},"n":{"x_min":0,"x_max":786.109375,"ha":782,"o":"m 669 0 l 469 0 l 566 452 q 570 474 568 463 q 572 501 572 485 q 551 573 572 546 q 481 601 530 601 q 363 553 419 601 q 294 441 308 505 l 200 0 l 0 0 l 159 748 l 354 748 l 336 659 q 449 744 381 713 q 581 775 516 775 q 732 721 679 775 q 786 577 786 668 q 777 509 786 545 l 669 0 "},"3":{"x_min":115,"x_max":894,"ha":828,"o":"m 828 290 q 663 51 796 143 q 396 -32 541 -32 q 199 27 274 -32 q 115 218 115 94 q 116 256 115 243 q 124 300 117 270 l 313 300 q 309 276 310 290 q 308 252 308 262 q 344 163 308 194 q 432 132 380 132 q 549 169 498 132 q 621 282 606 211 q 626 322 626 305 q 564 412 626 386 q 434 432 519 432 l 463 568 q 598 592 545 568 q 683 701 666 626 q 686 730 686 711 q 656 801 686 774 q 580 829 626 829 q 483 791 527 829 q 410 669 431 748 l 223 669 q 377 909 256 823 q 621 986 485 986 q 814 928 735 986 q 894 772 894 870 q 893 751 894 762 q 888 719 892 740 q 829 605 874 656 q 725 522 790 559 q 806 448 779 491 q 834 345 834 405 q 828 290 834 316 "},"9":{"x_min":130,"x_max":895,"ha":828,"o":"m 874 492 q 670 90 818 232 q 389 -33 540 -33 q 204 36 278 -33 q 130 224 130 105 l 330 224 q 355 155 325 183 q 431 127 385 127 q 549 182 496 127 q 645 384 614 250 q 548 335 609 355 q 441 315 488 315 q 248 388 314 315 q 187 564 187 455 q 300 845 187 720 q 618 984 427 984 q 835 893 767 984 q 895 674 895 816 q 889 586 895 631 q 874 492 883 541 m 516 476 q 653 542 600 476 q 701 681 701 602 q 670 785 701 744 q 578 826 639 826 q 445 755 500 826 q 391 603 391 684 q 421 511 391 546 q 516 476 452 476 "},"l":{"x_min":40.671875,"x_max":455.9375,"ha":363,"o":"m 239 0 l 40 0 l 257 1013 l 455 1013 l 239 0 "},"¤":{"x_min":111.84375,"x_max":897.390625,"ha":825,"o":"m 897 792 l 736 660 q 743 624 742 633 q 744 604 744 615 q 698 459 744 526 l 798 331 l 671 224 l 567 353 q 453 330 514 330 q 349 353 393 330 l 193 224 l 111 330 l 266 459 q 261 503 261 480 q 313 658 261 585 l 209 793 l 338 898 l 446 760 q 549 776 496 776 q 600 772 578 776 q 645 760 621 768 l 812 898 l 897 792 m 521 645 q 434 610 467 645 q 401 532 401 575 q 421 481 401 501 q 481 461 441 461 q 568 495 535 461 q 602 573 602 530 q 581 624 602 604 q 521 645 561 645 "},"κ":{"x_min":0,"x_max":837.5,"ha":779,"o":"m 691 0 l 479 0 l 358 343 l 250 252 l 195 0 l 0 0 l 159 749 l 355 749 l 300 490 l 600 749 l 837 749 l 519 479 l 691 0 "},"4":{"x_min":97.609375,"x_max":862.890625,"ha":828,"o":"m 820 212 l 704 213 l 658 0 l 468 0 l 514 213 l 97 213 l 133 384 l 619 958 l 862 958 l 737 370 l 853 369 l 820 212 m 550 364 l 640 786 l 281 364 l 550 364 "},"p":{"x_min":-63.890625,"x_max":815,"ha":824,"o":"m 410 -26 q 290 4 342 -26 q 213 92 237 34 l 130 -298 l -63 -298 l 159 750 l 351 750 l 330 647 q 447 740 381 706 q 581 775 512 775 q 762 688 701 775 q 815 491 815 615 q 802 375 815 432 q 671 106 767 218 q 410 -26 559 -26 m 493 603 q 345 529 408 603 q 273 375 293 466 q 265 306 265 342 q 293 194 265 236 q 393 146 326 146 q 536 221 475 146 q 605 371 587 283 q 614 444 614 405 q 587 554 614 512 q 493 603 557 603 "},"‡":{"x_min":44.4375,"x_max":980.5625,"ha":894,"o":"m 431 622 l 133 622 l 172 804 l 470 804 l 515 1011 l 725 1011 l 680 804 l 980 804 l 941 622 l 641 622 l 591 387 l 891 387 l 852 205 l 552 205 l 508 0 l 298 0 l 343 205 l 44 205 l 83 387 l 381 387 l 431 622 "},"ψ":{"x_min":70.828125,"x_max":1034.71875,"ha":979,"o":"m 552 142 q 695 241 638 160 q 745 352 733 294 l 830 748 l 1034 748 l 961 402 q 836 134 926 240 q 520 -22 719 -1 l 465 -278 l 288 -278 l 344 -22 q 126 80 194 -5 q 70 269 70 151 q 86 402 70 334 l 159 748 l 363 748 l 279 352 q 275 305 275 335 q 295 208 275 248 q 383 142 322 156 l 550 922 l 722 922 l 552 142 "},"η":{"x_min":0,"x_max":781.953125,"ha":779,"o":"m 609 -278 l 409 -278 l 552 390 q 559 425 554 395 q 563 483 563 455 q 545 568 563 536 q 477 605 523 605 q 363 554 418 605 q 295 441 309 502 l 201 0 l 0 0 l 159 748 l 361 748 l 343 665 q 461 744 395 714 q 588 774 526 774 q 734 712 683 774 q 781 562 781 655 q 773 484 781 525 l 609 -278 "}}}
